CC Accidenz Commons-medium.ufo
<glyph name="exclam" format="2">
	<advance width="316"/>
	<unicode hex="0021"/>
	<outline>
		<contour>
			<point x="220" y="117" type="line"/>
			<point x="90" y="117" type="line"/>
			<point x="90" y="0" type="line"/>
			<point x="220" y="0" type="line"/>
		</contour>
		<contour>
			<point x="203" y="161" type="line"/>
			<point x="221" y="670" type="line"/>
			<point x="90" y="670" type="line"/>
			<point x="107" y="161" type="line"/>
		</contour>
	</outline>
</glyph>
<glyph name="quotedbl" format="2">
	<advance width="321"/>
	<unicode hex="0022"/>
	<outline>
		<contour>
			<point x="157" y="711" type="line"/>
			<point x="21" y="711" type="line"/>
			<point x="40" y="489" type="line"/>
			<point x="139" y="489" type="line"/>
		</contour>
		<contour>
			<point x="299" y="711" type="line"/>
			<point x="163" y="711" type="line"/>
			<point x="182" y="489" type="line"/>
			<point x="281" y="489" type="line"/>
		</contour>
	</outline>
</glyph>
<glyph name="dollar" format="2">
	<advance width="602"/>
	<unicode hex="0024"/>
	<outline>
		<contour>
			<point x="259" y="335" type="line"/>
			<point x="269" y="799" type="line"/>
			<point x="214" y="799" type="line"/>
			<point x="224" y="335" type="line"/>
		</contour>
		<contour>
			<point x="214" y="-129" type="line"/>
			<point x="269" y="-129" type="line"/>
			<point x="259" y="335" type="line"/>
			<point x="224" y="335" type="line"/>
		</contour>
		<contour>
			<point x="369" y="335" type="line"/>
			<point x="379" y="799" type="line"/>
			<point x="324" y="799" type="line"/>
			<point x="334" y="335" type="line"/>
		</contour>
		<contour>
			<point x="324" y="-129" type="line"/>
			<point x="379" y="-129" type="line"/>
			<point x="369" y="335" type="line"/>
			<point x="334" y="335" type="line"/>
		</contour>
		<component base="S" xOffset="4"/>
	</outline>
</glyph>
<glyph name="ampersand" format="2">
	<advance width="663"/>
	<unicode hex="0026"/>
	<outline>
		<contour>
			<point x="318" y="657" type="curve"/>
			<point x="318" y="657" type="line"/>
			<point x="222" y="657"/>
			<point x="153" y="599"/>
			<point x="153" y="509" type="curve"/>
			<point x="153" y="459"/>
			<point x="177" y="414"/>
			<point x="204" y="373" type="curve"/>
			<point x="340" y="169" type="line" smooth="yes"/>
			<point x="433" y="30"/>
			<point x="470" y="-12"/>
			<point x="566" y="-12" type="curve"/>
			<point x="586" y="-12"/>
			<point x="612" y="-9"/>
			<point x="634" y="0" type="curve"/>
			<point x="634" y="94" type="line"/>
			<point x="612" y="84"/>
			<point x="599" y="80"/>
			<point x="581" y="80" type="curve"/>
			<point x="543" y="80"/>
			<point x="517" y="103"/>
			<point x="427" y="238" type="curve"/>
			<point x="298" y="430" type="line" smooth="yes"/>
			<point x="284" y="451"/>
			<point x="259" y="477"/>
			<point x="259" y="514" type="curve"/>
			<point x="259" y="546"/>
			<point x="281" y="566"/>
			<point x="314" y="566" type="curve"/>
			<point x="347" y="566"/>
			<point x="367" y="546"/>
			<point x="367" y="513" type="curve"/>
			<point x="367" y="480"/>
			<point x="342" y="445"/>
			<point x="256" y="418" type="curve"/>
			<point x="109" y="372"/>
			<point x="28" y="283"/>
			<point x="28" y="176" type="curve"/>
			<point x="28" y="63"/>
			<point x="120" y="-13"/>
			<point x="260" y="-13" type="curve"/>
			<point x="447" y="-13"/>
			<point x="592" y="149"/>
			<point x="590" y="335" type="curve"/>
			<point x="497" y="335" type="line"/>
			<point x="494" y="167"/>
			<point x="390" y="73"/>
			<point x="281" y="73" type="curve"/>
			<point x="196" y="73"/>
			<point x="148" y="131"/>
			<point x="148" y="197" type="curve"/>
			<point x="148" y="271"/>
			<point x="192" y="318"/>
			<point x="283" y="350" type="curve"/>
			<point x="412" y="395"/>
			<point x="468" y="451"/>
			<point x="468" y="529" type="curve"/>
			<point x="468" y="602"/>
			<point x="406" y="657"/>
		</contour>
	</outline>
</glyph>
<glyph name="quotesingle" format="2">
	<advance width="275"/>
	<unicode hex="0027"/>
	<outline>
		<contour>
			<point x="123" y="617" type="line"/>
			<point x="123" y="581" type="line"/>
			<point x="123" y="540"/>
			<point x="106" y="528"/>
			<point x="62" y="529" type="curve"/>
			<point x="62" y="455" type="line"/>
			<point x="175" y="479"/>
			<point x="217" y="528"/>
			<point x="213" y="617" type="curve"/>
		</contour>
		<contour>
			<point x="213" y="717" type="line"/>
			<point x="79" y="717" type="line"/>
			<point x="79" y="595" type="line"/>
			<point x="213" y="595" type="line"/>
		</contour>
	</outline>
</glyph>
<glyph name="parenleft" format="2">
	<advance width="273"/>
	<unicode hex="0028"/>
	<outline>
		<contour>
			<point x="26" y="266" type="curve"/>
			<point x="152" y="266" type="line"/>
			<point x="150" y="451"/>
			<point x="193" y="575"/>
			<point x="292" y="717" type="curve"/>
			<point x="194" y="717" type="line"/>
			<point x="77" y="578"/>
			<point x="24" y="450"/>
		</contour>
		<contour>
			<point x="152" y="288" type="curve"/>
			<point x="152" y="288" type="line"/>
			<point x="26" y="288" type="line"/>
			<point x="24" y="104"/>
			<point x="77" y="-24"/>
			<point x="194" y="-163" type="curve"/>
			<point x="292" y="-163" type="line"/>
			<point x="193" y="-21"/>
			<point x="150" y="103"/>
		</contour>
	</outline>
</glyph>
<glyph name="parenright" format="2">
	<advance width="326"/>
	<unicode hex="0029"/>
	<outline>
		<contour>
			<point x="167" y="266" type="curve"/>
			<point x="167" y="266" type="line"/>
			<point x="292" y="266" type="line"/>
			<point x="294" y="450"/>
			<point x="242" y="578"/>
			<point x="124" y="717" type="curve"/>
			<point x="26" y="717" type="line"/>
			<point x="126" y="575"/>
			<point x="168" y="451"/>
		</contour>
		<contour>
			<point x="292" y="288" type="curve"/>
			<point x="167" y="288" type="line"/>
			<point x="168" y="103"/>
			<point x="126" y="-21"/>
			<point x="26" y="-163" type="curve"/>
			<point x="124" y="-163" type="line"/>
			<point x="242" y="-24"/>
			<point x="294" y="104"/>
		</contour>
	</outline>
</glyph>
<glyph name="asterisk" format="2">
	<advance width="595"/>
	<unicode hex="002A"/>
	<outline>
		<contour>
			<point x="130" y="312" type="line"/>
			<point x="216" y="254" type="line"/>
			<point x="298" y="380" type="line"/>
			<point x="377" y="253" type="line"/>
			<point x="465" y="317" type="line"/>
			<point x="366" y="434" type="line"/>
			<point x="513" y="480" type="line"/>
			<point x="480" y="573" type="line"/>
			<point x="344" y="512" type="line"/>
			<point x="351" y="669" type="line"/>
			<point x="245" y="669" type="line"/>
			<point x="253" y="512" type="line"/>
			<point x="114" y="573" type="line"/>
			<point x="83" y="480" type="line"/>
			<point x="228" y="434" type="line"/>
		</contour>
	</outline>
</glyph>
<glyph name="comma" format="2">
	<advance width="275"/>
	<unicode hex="002C"/>
	<outline>
		<contour>
			<point x="123" y="26" type="line"/>
			<point x="123" y="-10" type="line"/>
			<point x="123" y="-50"/>
			<point x="106" y="-63"/>
			<point x="62" y="-62" type="curve"/>
			<point x="62" y="-136" type="line"/>
			<point x="175" y="-111"/>
			<point x="217" y="-63"/>
			<point x="213" y="26" type="curve"/>
		</contour>
		<contour>
			<point x="213" y="100" type="line"/>
			<point x="79" y="100" type="line"/>
			<point x="79" y="0" type="line"/>
			<point x="213" y="0" type="line"/>
		</contour>
	</outline>
</glyph>
<glyph name="hyphen" format="2">
	<advance width="466"/>
	<unicode hex="002D"/>
	<outline>
		<contour>
			<point x="388" y="316" type="line"/>
			<point x="78" y="316" type="line"/>
			<point x="78" y="217" type="line"/>
			<point x="388" y="217" type="line"/>
		</contour>
	</outline>
</glyph>
<glyph name="period" format="2">
	<advance width="291"/>
	<unicode hex="002E"/>
	<outline>
		<contour>
			<point x="212" y="111" type="line"/>
			<point x="77" y="111" type="line"/>
			<point x="77" y="-11" type="line"/>
			<point x="212" y="-11" type="line"/>
		</contour>
	</outline>
</glyph>
<glyph name="slash" format="2">
	<advance width="404"/>
	<unicode hex="002F"/>
	<outline>
		<contour>
			<point x="-52" y="-199" type="line"/>
			<point x="67" y="-199" type="line"/>
			<point x="456" y="790" type="line"/>
			<point x="337" y="790" type="line"/>
		</contour>
	</outline>
</glyph>
<glyph name="zero" format="2">
	<advance width="600"/>
	<unicode hex="0030"/>
	<outline>
		<contour>
			<point x="300" y="-12" type="curve"/>
			<point x="300" y="-12" type="line"/>
			<point x="464" y="-12"/>
			<point x="558" y="115"/>
			<point x="558" y="335" type="curve"/>
			<point x="558" y="555"/>
			<point x="464" y="682"/>
			<point x="300" y="682" type="curve"/>
			<point x="137" y="682"/>
			<point x="43" y="555"/>
			<point x="43" y="335" type="curve"/>
			<point x="43" y="115"/>
			<point x="137" y="-12"/>
		</contour>
		<contour>
			<point x="300" y="82" type="curve"/>
			<point x="300" y="82" type="line"/>
			<point x="213" y="82"/>
			<point x="168" y="168"/>
			<point x="168" y="335" type="curve"/>
			<point x="168" y="502"/>
			<point x="213" y="588"/>
			<point x="300" y="588" type="curve"/>
			<point x="388" y="588"/>
			<point x="433" y="502"/>
			<point x="433" y="335" type="curve"/>
			<point x="433" y="168"/>
			<point x="388" y="82"/>
		</contour>
	</outline>
</glyph>
<glyph name="five" format="2">
	<advance width="570"/>
	<unicode hex="0035"/>
	<outline>
		<contour>
			<point x="291" y="-12" type="curve"/>
			<point x="291" y="-12" type="line"/>
			<point x="433" y="-12"/>
			<point x="528" y="89"/>
			<point x="528" y="239" type="curve"/>
			<point x="528" y="381"/>
			<point x="439" y="480"/>
			<point x="307" y="480" type="curve"/>
			<point x="220" y="480"/>
			<point x="145" y="442"/>
			<point x="116" y="308" type="curve"/>
			<point x="160" y="300" type="line"/>
			<point x="190" y="367"/>
			<point x="223" y="385"/>
			<point x="288" y="385" type="curve"/>
			<point x="360" y="385"/>
			<point x="405" y="334"/>
			<point x="405" y="239" type="curve"/>
			<point x="405" y="131"/>
			<point x="366" y="83"/>
			<point x="291" y="83" type="curve"/>
			<point x="211" y="83"/>
			<point x="168" y="128"/>
			<point x="147" y="233" type="curve"/>
			<point x="34" y="176" type="line"/>
			<point x="76" y="50"/>
			<point x="155" y="-12"/>
		</contour>
		<contour>
			<point x="105" y="670" type="line"/>
			<point x="105" y="576" type="line"/>
			<point x="489" y="576" type="line"/>
			<point x="504" y="670" type="line"/>
		</contour>
		<contour>
			<point x="160" y="300" type="line"/>
			<point x="208" y="670" type="line"/>
			<point x="105" y="670" type="line"/>
			<point x="57" y="312" type="line"/>
		</contour>
	</outline>
</glyph>
<glyph name="six" format="2">
	<advance width="586"/>
	<unicode hex="0036"/>
	<outline>
		<contour>
			<point x="297" y="-12" type="curve"/>
			<point x="297" y="-12" type="line"/>
			<point x="447" y="-12"/>
			<point x="542" y="84"/>
			<point x="542" y="221" type="curve"/>
			<point x="542" y="355"/>
			<point x="448" y="449"/>
			<point x="314" y="449" type="curve"/>
			<point x="227" y="449"/>
			<point x="167" y="405"/>
			<point x="138" y="336" type="curve"/>
			<point x="164" y="356" type="line"/>
			<point x="160" y="510"/>
			<point x="222" y="588"/>
			<point x="307" y="588" type="curve"/>
			<point x="365" y="588"/>
			<point x="397" y="563"/>
			<point x="424" y="479" type="curve"/>
			<point x="540" y="530" type="line"/>
			<point x="495" y="630"/>
			<point x="422" y="682"/>
			<point x="306" y="682" type="curve"/>
			<point x="135" y="682"/>
			<point x="43" y="545"/>
			<point x="43" y="334" type="curve"/>
			<point x="43" y="118"/>
			<point x="132" y="-12"/>
		</contour>
		<contour>
			<point x="299" y="82" type="curve"/>
			<point x="299" y="82" type="line"/>
			<point x="229" y="82"/>
			<point x="179" y="139"/>
			<point x="179" y="221" type="curve"/>
			<point x="179" y="299"/>
			<point x="229" y="357"/>
			<point x="299" y="357" type="curve"/>
			<point x="370" y="357"/>
			<point x="420" y="299"/>
			<point x="420" y="221" type="curve"/>
			<point x="420" y="139"/>
			<point x="370" y="82"/>
		</contour>
	</outline>
</glyph>
<glyph name="seven" format="2">
	<advance width="504"/>
	<unicode hex="0037"/>
	<outline>
		<contour>
			<point x="491" y="670" type="line"/>
			<point x="30" y="670" type="line"/>
			<point x="30" y="575" type="line"/>
			<point x="491" y="575" type="line"/>
		</contour>
		<contour>
			<point x="127" y="0" type="curve"/>
			<point x="253" y="0" type="line"/>
			<point x="301" y="257"/>
			<point x="356" y="384"/>
			<point x="491" y="554" type="curve"/>
			<point x="491" y="656" type="line"/>
			<point x="397" y="590" type="line"/>
			<point x="238" y="372"/>
			<point x="180" y="242"/>
		</contour>
	</outline>
</glyph>
<glyph name="eight" format="2">
	<advance width="566"/>
	<unicode hex="0038"/>
	<outline>
		<contour>
			<point x="284" y="-12" type="curve"/>
			<point x="284" y="-12" type="line"/>
			<point x="443" y="-12"/>
			<point x="532" y="79"/>
			<point x="532" y="194" type="curve"/>
			<point x="532" y="306"/>
			<point x="449" y="380"/>
			<point x="284" y="380" type="curve"/>
			<point x="118" y="380"/>
			<point x="35" y="306"/>
			<point x="35" y="194" type="curve"/>
			<point x="35" y="79"/>
			<point x="126" y="-12"/>
		</contour>
		<contour>
			<point x="284" y="84" type="curve"/>
			<point x="284" y="84" type="line"/>
			<point x="199" y="84"/>
			<point x="153" y="132"/>
			<point x="153" y="194" type="curve"/>
			<point x="153" y="257"/>
			<point x="199" y="306"/>
			<point x="284" y="306" type="curve"/>
			<point x="368" y="306"/>
			<point x="414" y="257"/>
			<point x="414" y="194" type="curve"/>
			<point x="414" y="132"/>
			<point x="368" y="84"/>
		</contour>
		<contour>
			<point x="284" y="320" type="curve"/>
			<point x="284" y="320" type="line"/>
			<point x="426" y="320"/>
			<point x="520" y="391"/>
			<point x="520" y="492" type="curve"/>
			<point x="520" y="595"/>
			<point x="441" y="682"/>
			<point x="284" y="682" type="curve"/>
			<point x="127" y="682"/>
			<point x="46" y="596"/>
			<point x="46" y="492" type="curve"/>
			<point x="46" y="391"/>
			<point x="140" y="320"/>
		</contour>
		<contour>
			<point x="284" y="392" type="curve"/>
			<point x="284" y="392" type="line"/>
			<point x="203" y="392"/>
			<point x="162" y="435"/>
			<point x="162" y="492" type="curve"/>
			<point x="162" y="548"/>
			<point x="204" y="593"/>
			<point x="284" y="593" type="curve"/>
			<point x="364" y="593"/>
			<point x="404" y="548"/>
			<point x="404" y="492" type="curve"/>
			<point x="404" y="435"/>
			<point x="364" y="392"/>
		</contour>
		<contour>
			<point x="437" y="386" type="line"/>
			<point x="130" y="386" type="line"/>
			<point x="130" y="320" type="line"/>
			<point x="437" y="320" type="line"/>
		</contour>
	</outline>
</glyph>
<glyph name="nine" format="2">
	<advance width="584"/>
	<unicode hex="0039"/>
	<outline>
		<contour>
			<point x="279" y="-12" type="curve"/>
			<point x="279" y="-12" type="line"/>
			<point x="451" y="-12"/>
			<point x="543" y="125"/>
			<point x="543" y="336" type="curve"/>
			<point x="543" y="552"/>
			<point x="453" y="682"/>
			<point x="284" y="682" type="curve"/>
			<point x="142" y="682"/>
			<point x="44" y="579"/>
			<point x="44" y="449" type="curve"/>
			<point x="44" y="315"/>
			<point x="137" y="220"/>
			<point x="279" y="220" type="curve"/>
			<point x="359" y="220"/>
			<point x="423" y="256"/>
			<point x="458" y="325" type="curve"/>
			<point x="421" y="329" type="line"/>
			<point x="421" y="154"/>
			<point x="364" y="82"/>
			<point x="284" y="82" type="curve"/>
			<point x="224" y="82"/>
			<point x="191" y="109"/>
			<point x="155" y="201" type="curve"/>
			<point x="42" y="148" type="line"/>
			<point x="91" y="40"/>
			<point x="164" y="-12"/>
		</contour>
		<contour>
			<point x="286" y="313" type="curve"/>
			<point x="286" y="313" type="line"/>
			<point x="216" y="313"/>
			<point x="166" y="371"/>
			<point x="166" y="449" type="curve"/>
			<point x="166" y="531"/>
			<point x="216" y="588"/>
			<point x="286" y="588" type="curve"/>
			<point x="357" y="588"/>
			<point x="406" y="531"/>
			<point x="406" y="449" type="curve"/>
			<point x="406" y="371"/>
			<point x="357" y="313"/>
		</contour>
	</outline>
</glyph>
<glyph name="at" format="2">
	<advance width="939"/>
	<unicode hex="0040"/>
	<outline>
		<contour>
			<point x="630" y="218" type="curve"/>
			<point x="577" y="164" type="line"/>
			<point x="577" y="119"/>
			<point x="591" y="63"/>
			<point x="688" y="64" type="curve"/>
			<point x="812" y="65"/>
			<point x="884" y="170"/>
			<point x="884" y="319" type="curve"/>
			<point x="884" y="511"/>
			<point x="740" y="691"/>
			<point x="463" y="691" type="curve"/>
			<point x="236" y="691"/>
			<point x="52" y="513"/>
			<point x="52" y="263" type="curve"/>
			<point x="52" y="20"/>
			<point x="222" y="-156"/>
			<point x="463" y="-156" type="curve"/>
			<point x="604" y="-156"/>
			<point x="710" y="-110"/>
			<point x="752" y="-42" type="curve"/>
			<point x="676" y="-12" type="line"/>
			<point x="637" y="-61"/>
			<point x="573" y="-88"/>
			<point x="463" y="-88" type="curve"/>
			<point x="280" y="-88"/>
			<point x="125" y="53"/>
			<point x="125" y="264" type="curve"/>
			<point x="125" y="471"/>
			<point x="263" y="623"/>
			<point x="463" y="623" type="curve"/>
			<point x="704" y="623"/>
			<point x="815" y="470"/>
			<point x="815" y="311" type="curve"/>
			<point x="815" y="190"/>
			<point x="773" y="128"/>
			<point x="712" y="128" type="curve"/>
			<point x="649" y="128"/>
			<point x="630" y="165"/>
		</contour>
		<contour>
			<point x="562" y="393" type="line"/>
			<point x="562" y="174" type="line"/>
			<point x="566" y="166" type="line"/>
			<point x="630" y="166" type="line"/>
			<point x="630" y="463" type="line"/>
			<point x="568" y="463" type="line"/>
			<point x="568" y="402" type="line"/>
		</contour>
		<contour>
			<point x="583" y="161" type="curve"/>
			<point x="604" y="271" type="line"/>
			<point x="604" y="328"/>
			<point x="588" y="386"/>
			<point x="568" y="407" type="curve"/>
			<point x="556" y="407" type="line"/>
			<point x="529" y="453"/>
			<point x="492" y="468"/>
			<point x="448" y="468" type="curve"/>
			<point x="344" y="468"/>
			<point x="274" y="386"/>
			<point x="274" y="267" type="curve"/>
			<point x="274" y="141"/>
			<point x="339" y="65"/>
			<point x="444" y="65" type="curve"/>
			<point x="502" y="65"/>
			<point x="553" y="87"/>
		</contour>
		<contour>
			<point x="562" y="266" type="curve"/>
			<point x="562" y="266" type="line"/>
			<point x="562" y="176"/>
			<point x="524" y="129"/>
			<point x="455" y="129" type="curve"/>
			<point x="390" y="129"/>
			<point x="351" y="183"/>
			<point x="351" y="272" type="curve"/>
			<point x="351" y="352"/>
			<point x="391" y="406"/>
			<point x="451" y="406" type="curve"/>
			<point x="521" y="406"/>
			<point x="562" y="358"/>
		</contour>
		<contour>
			<point x="586" y="155" type="line"/>
			<point x="566" y="155" type="line"/>
			<point x="566" y="135" type="line"/>
			<point x="586" y="135" type="line"/>
		</contour>
	</outline>
</glyph>
<glyph name="A" format="2">
	<advance width="583"/>
	<unicode hex="0041"/>
	<outline>
		<contour>
			<point x="320" y="654" type="line"/>
			<point x="263" y="654" type="line"/>
			<point x="465" y="0" type="line"/>
			<point x="594" y="0" type="line"/>
			<point x="371" y="670" type="line"/>
			<point x="214" y="670" type="line"/>
			<point x="-11" y="0" type="line"/>
			<point x="118" y="0" type="line"/>
		</contour>
		<contour>
			<point x="97" y="231" type="line"/>
			<point x="97" y="136" type="line"/>
			<point x="484" y="136" type="line"/>
			<point x="484" y="231" type="line"/>
		</contour>
	</outline>
</glyph>
<glyph name="B" format="2">
	<advance width="611"/>
	<unicode hex="0042"/>
	<outline>
		<contour>
			<point x="139" y="95" type="line"/>
			<point x="139" y="0" type="line"/>
			<point x="324" y="0" type="line" smooth="yes"/>
			<point x="479" y="0"/>
			<point x="569" y="82"/>
			<point x="569" y="204" type="curve"/>
			<point x="569" y="283"/>
			<point x="524" y="335"/>
			<point x="445" y="353" type="curve"/>
			<point x="445" y="365" type="line"/>
			<point x="392" y="363" type="line"/>
			<point x="496" y="348"/>
			<point x="555" y="419"/>
			<point x="555" y="503" type="curve"/>
			<point x="555" y="605"/>
			<point x="478" y="670"/>
			<point x="333" y="670" type="curve"/>
			<point x="139" y="670" type="line"/>
			<point x="139" y="575" type="line"/>
			<point x="327" y="575" type="line" smooth="yes"/>
			<point x="397" y="575"/>
			<point x="431" y="548"/>
			<point x="431" y="495" type="curve"/>
			<point x="431" y="432"/>
			<point x="396" y="401"/>
			<point x="327" y="401" type="curve"/>
			<point x="139" y="401" type="line"/>
			<point x="139" y="310" type="line"/>
			<point x="312" y="310" type="line" smooth="yes"/>
			<point x="409" y="310"/>
			<point x="445" y="272"/>
			<point x="445" y="203" type="curve"/>
			<point x="445" y="129"/>
			<point x="412" y="95"/>
			<point x="332" y="95" type="curve"/>
		</contour>
		<contour>
			<point x="66" y="670" type="line"/>
			<point x="66" y="0" type="line"/>
			<point x="187" y="0" type="line"/>
			<point x="187" y="670" type="line"/>
		</contour>
	</outline>
</glyph>
<glyph name="C" format="2">
	<advance width="652"/>
	<unicode hex="0043"/>
	<outline>
		<contour>
			<point x="340" y="84" type="curve"/>
			<point x="340" y="84" type="line"/>
			<point x="234" y="84"/>
			<point x="160" y="173"/>
			<point x="160" y="334" type="curve"/>
			<point x="160" y="495"/>
			<point x="234" y="587"/>
			<point x="340" y="587" type="curve"/>
			<point x="426" y="587"/>
			<point x="475" y="535"/>
			<point x="503" y="411" type="curve"/>
			<point x="621" y="460" type="line"/>
			<point x="587" y="602"/>
			<point x="491" y="684"/>
			<point x="340" y="684" type="curve"/>
			<point x="163" y="684"/>
			<point x="34" y="546"/>
			<point x="34" y="334" type="curve"/>
			<point x="34" y="117"/>
			<point x="149" y="-14"/>
			<point x="340" y="-14" type="curve"/>
			<point x="489" y="-14"/>
			<point x="582" y="76"/>
			<point x="623" y="210" type="curve"/>
			<point x="503" y="259" type="line"/>
			<point x="477" y="134"/>
			<point x="428" y="84"/>
		</contour>
	</outline>
</glyph>
<glyph name="D" format="2">
	<advance width="638"/>
	<unicode hex="0044"/>
	<outline>
		<contour>
			<point x="65" y="670" type="line"/>
			<point x="65" y="0" type="line"/>
			<point x="315" y="0" type="line" smooth="yes"/>
			<point x="485" y="8"/>
			<point x="603" y="132"/>
			<point x="603" y="335" type="curve"/>
			<point x="603" y="545"/>
			<point x="479" y="670"/>
			<point x="299" y="670" type="curve"/>
		</contour>
		<contour>
			<point x="298" y="95" type="curve"/>
			<point x="187" y="95" type="line"/>
			<point x="187" y="575" type="line"/>
			<point x="298" y="575" type="line" smooth="yes"/>
			<point x="407" y="575"/>
			<point x="480" y="495"/>
			<point x="480" y="335" type="curve"/>
			<point x="480" y="175"/>
			<point x="407" y="95"/>
		</contour>
	</outline>
</glyph>
<glyph name="F" format="2">
	<advance width="541"/>
	<unicode hex="0046"/>
	<outline>
		<contour>
			<point x="466" y="401" type="line"/>
			<point x="125" y="401" type="line"/>
			<point x="125" y="307" type="line"/>
			<point x="466" y="307" type="line"/>
		</contour>
		<contour>
			<point x="511" y="670" type="line"/>
			<point x="115" y="670" type="line"/>
			<point x="115" y="575" type="line"/>
			<point x="511" y="575" type="line"/>
		</contour>
		<contour>
			<point x="65" y="0" type="line"/>
			<point x="187" y="0" type="line"/>
			<point x="187" y="670" type="line"/>
			<point x="65" y="670" type="line"/>
		</contour>
	</outline>
</glyph>
<glyph name="G" format="2">
	<advance width="665"/>
	<unicode hex="0047"/>
	<outline>
		<contour>
			<point x="605" y="365" type="line"/>
			<point x="296" y="365" type="line"/>
			<point x="296" y="271" type="line"/>
			<point x="605" y="271" type="line"/>
		</contour>
		<contour>
			<point x="501" y="0" type="line"/>
			<point x="605" y="0" type="line"/>
			<point x="605" y="341" type="line"/>
			<point x="492" y="341" type="line"/>
			<point x="492" y="81" type="line"/>
			<point x="501" y="81" type="line"/>
		</contour>
		<contour>
			<point x="493" y="446" type="curve"/>
			<point x="493" y="446" type="line"/>
			<point x="609" y="501" type="line"/>
			<point x="572" y="611"/>
			<point x="477" y="684"/>
			<point x="346" y="684" type="curve"/>
			<point x="161" y="684"/>
			<point x="34" y="542"/>
			<point x="34" y="335" type="curve"/>
			<point x="34" y="128"/>
			<point x="153" y="-13"/>
			<point x="325" y="-13" type="curve"/>
			<point x="465" y="-13"/>
			<point x="536" y="95"/>
			<point x="536" y="265" type="curve"/>
			<point x="492" y="265" type="line"/>
			<point x="492" y="155"/>
			<point x="426" y="84"/>
			<point x="338" y="84" type="curve"/>
			<point x="232" y="84"/>
			<point x="159" y="187"/>
			<point x="159" y="335" type="curve"/>
			<point x="159" y="484"/>
			<point x="232" y="587"/>
			<point x="337" y="587" type="curve"/>
			<point x="418" y="587"/>
			<point x="466" y="542"/>
		</contour>
	</outline>
</glyph>
<glyph name="H" format="2">
	<advance width="653"/>
	<unicode hex="0048"/>
	<outline>
		<contour>
			<point x="588" y="669" type="line"/>
			<point x="465" y="669" type="line"/>
			<point x="465" y="0" type="line"/>
			<point x="588" y="0" type="line"/>
		</contour>
		<contour>
			<point x="515" y="391" type="line"/>
			<point x="138" y="391" type="line"/>
			<point x="138" y="297" type="line"/>
			<point x="515" y="297" type="line"/>
		</contour>
		<contour>
			<point x="65" y="0" type="line"/>
			<point x="186" y="0" type="line"/>
			<point x="186" y="669" type="line"/>
			<point x="65" y="669" type="line"/>
		</contour>
	</outline>
</glyph>
<glyph name="I" format="2">
	<advance width="252"/>
	<unicode hex="0049"/>
	<outline>
		<contour>
			<point x="65" y="670" type="line"/>
			<point x="65" y="0" type="line"/>
			<point x="187" y="0" type="line"/>
			<point x="187" y="670" type="line"/>
		</contour>
	</outline>
</glyph>
<glyph name="J" format="2">
	<advance width="415"/>
	<unicode hex="004A"/>
	<outline>
		<contour>
			<point x="38" y="95" type="line"/>
			<point x="37" y="0" type="line"/>
			<point x="142" y="0" type="line" smooth="yes"/>
			<point x="284" y="0"/>
			<point x="350" y="57"/>
			<point x="350" y="164" type="curve"/>
			<point x="350" y="670" type="line"/>
			<point x="229" y="670" type="line"/>
			<point x="229" y="174" type="line" smooth="yes"/>
			<point x="229" y="118"/>
			<point x="207" y="95"/>
			<point x="142" y="95" type="curve"/>
		</contour>
	</outline>
</glyph>
<glyph name="K" format="2">
	<advance width="583"/>
	<unicode hex="004B"/>
	<outline>
		<contour>
			<point x="65" y="0" type="line"/>
			<point x="186" y="0" type="line"/>
			<point x="186" y="670" type="line"/>
			<point x="65" y="670" type="line"/>
		</contour>
		<contour>
			<point x="314" y="455" type="line"/>
			<point x="238" y="368" type="line"/>
			<point x="452" y="0" type="line"/>
			<point x="584" y="0" type="line"/>
		</contour>
		<contour>
			<point x="445" y="670" type="line"/>
			<point x="117" y="267" type="line"/>
			<point x="117" y="117" type="line"/>
			<point x="583" y="670" type="line"/>
		</contour>
	</outline>
</glyph>
<glyph name="L" format="2">
	<advance width="517"/>
	<unicode hex="004C"/>
	<outline>
		<contour>
			<point x="480" y="95" type="line"/>
			<point x="124" y="95" type="line"/>
			<point x="124" y="0" type="line"/>
			<point x="480" y="0" type="line"/>
		</contour>
		<contour>
			<point x="65" y="0" type="line"/>
			<point x="187" y="0" type="line"/>
			<point x="187" y="670" type="line"/>
			<point x="65" y="670" type="line"/>
		</contour>
	</outline>
</glyph>
<glyph name="M" format="2">
	<advance width="780"/>
	<unicode hex="004D"/>
	<outline>
		<contour>
			<point x="65" y="670" type="line"/>
			<point x="65" y="0" type="line"/>
			<point x="186" y="0" type="line"/>
			<point x="186" y="600" type="line"/>
			<point x="170" y="597" type="line"/>
			<point x="347" y="0" type="line"/>
			<point x="432" y="0" type="line"/>
			<point x="607" y="589" type="line"/>
			<point x="591" y="592" type="line"/>
			<point x="591" y="0" type="line"/>
			<point x="715" y="0" type="line"/>
			<point x="715" y="670" type="line"/>
			<point x="530" y="670" type="line"/>
			<point x="374" y="145" type="line"/>
			<point x="406" y="145" type="line"/>
			<point x="250" y="670" type="line"/>
		</contour>
	</outline>
</glyph>
<glyph name="O" format="2">
	<advance width="675"/>
	<unicode hex="004F"/>
	<outline>
		<contour>
			<point x="337" y="-13" type="curve"/>
			<point x="337" y="-13" type="line"/>
			<point x="517" y="-13"/>
			<point x="640" y="128"/>
			<point x="640" y="334" type="curve"/>
			<point x="640" y="543"/>
			<point x="517" y="685"/>
			<point x="337" y="685" type="curve"/>
			<point x="158" y="685"/>
			<point x="34" y="543"/>
			<point x="34" y="334" type="curve"/>
			<point x="34" y="128"/>
			<point x="158" y="-13"/>
		</contour>
		<contour>
			<point x="337" y="85" type="curve"/>
			<point x="337" y="85" type="line"/>
			<point x="226" y="85"/>
			<point x="160" y="177"/>
			<point x="160" y="334" type="curve"/>
			<point x="160" y="492"/>
			<point x="227" y="586"/>
			<point x="338" y="586" type="curve"/>
			<point x="451" y="586"/>
			<point x="518" y="492"/>
			<point x="518" y="334" type="curve"/>
			<point x="518" y="177"/>
			<point x="451" y="85"/>
		</contour>
	</outline>
</glyph>
<glyph name="P" format="2">
	<advance width="581"/>
	<unicode hex="0050"/>
	<outline>
		<contour>
			<point x="186" y="670" type="line"/>
			<point x="65" y="670" type="line"/>
			<point x="65" y="0" type="line"/>
			<point x="186" y="0" type="line"/>
		</contour>
		<contour>
			<point x="301" y="670" type="curve"/>
			<point x="106" y="670" type="line"/>
			<point x="106" y="575" type="line"/>
			<point x="309" y="575" type="line" smooth="yes"/>
			<point x="390" y="575"/>
			<point x="423" y="543"/>
			<point x="423" y="480" type="curve"/>
			<point x="423" y="403"/>
			<point x="390" y="376"/>
			<point x="307" y="376" type="curve"/>
			<point x="106" y="376" type="line"/>
			<point x="106" y="281" type="line"/>
			<point x="299" y="281" type="line" smooth="yes"/>
			<point x="459" y="281"/>
			<point x="545" y="351"/>
			<point x="545" y="487" type="curve"/>
			<point x="545" y="603"/>
			<point x="459" y="670"/>
		</contour>
	</outline>
</glyph>
<glyph name="Q" format="2">
	<advance width="662"/>
	<unicode hex="0051"/>
	<outline>
		<contour>
			<point x="337" y="-13" type="curve"/>
			<point x="337" y="-13" type="line"/>
			<point x="513" y="-13"/>
			<point x="640" y="124"/>
			<point x="640" y="334" type="curve"/>
			<point x="640" y="546"/>
			<point x="513" y="684"/>
			<point x="337" y="684" type="curve"/>
			<point x="161" y="684"/>
			<point x="34" y="546"/>
			<point x="34" y="334" type="curve"/>
			<point x="34" y="124"/>
			<point x="161" y="-13"/>
		</contour>
		<contour>
			<point x="337" y="83" type="curve"/>
			<point x="337" y="83" type="line"/>
			<point x="231" y="83"/>
			<point x="159" y="172"/>
			<point x="159" y="334" type="curve"/>
			<point x="159" y="497"/>
			<point x="231" y="587"/>
			<point x="338" y="587" type="curve"/>
			<point x="445" y="587"/>
			<point x="518" y="497"/>
			<point x="518" y="334" type="curve"/>
			<point x="518" y="172"/>
			<point x="445" y="83"/>
		</contour>
		<contour>
			<point x="519" y="181" type="curve"/>
			<point x="519" y="181" type="line"/>
			<point x="458" y="125" type="line"/>
			<point x="505" y="41"/>
			<point x="565" y="-2"/>
			<point x="651" y="-16" type="curve"/>
			<point x="684" y="95" type="line"/>
			<point x="611" y="100"/>
			<point x="585" y="112"/>
		</contour>
	</outline>
</glyph>
<glyph name="R" format="2">
	<advance width="591"/>
	<unicode hex="0052"/>
	<outline>
		<contour>
			<point x="301" y="670" type="curve"/>
			<point x="106" y="670" type="line"/>
			<point x="106" y="575" type="line"/>
			<point x="309" y="575" type="line" smooth="yes"/>
			<point x="391" y="575"/>
			<point x="423" y="548"/>
			<point x="423" y="487" type="curve"/>
			<point x="423" y="419"/>
			<point x="395" y="391"/>
			<point x="317" y="391" type="curve"/>
			<point x="106" y="391" type="line"/>
			<point x="106" y="296" type="line"/>
			<point x="301" y="296" type="line" smooth="yes"/>
			<point x="459" y="296"/>
			<point x="545" y="362"/>
			<point x="545" y="487" type="curve"/>
			<point x="545" y="607"/>
			<point x="459" y="670"/>
		</contour>
		<contour>
			<point x="186" y="670" type="line"/>
			<point x="65" y="670" type="line"/>
			<point x="65" y="0" type="line"/>
			<point x="186" y="0" type="line"/>
		</contour>
		<contour>
			<point x="399" y="328" type="line"/>
			<point x="271" y="329" type="line"/>
			<point x="442" y="0" type="line"/>
			<point x="573" y="0" type="line"/>
		</contour>
	</outline>
</glyph>
<glyph name="T" format="2">
	<advance width="516"/>
	<unicode hex="0054"/>
	<outline>
		<contour>
			<point x="506" y="670" type="line"/>
			<point x="241" y="670" type="line"/>
			<point x="241" y="575" type="line"/>
			<point x="506" y="575" type="line"/>
		</contour>
		<contour>
			<point x="196" y="0" type="line"/>
			<point x="318" y="0" type="line"/>
			<point x="318" y="670" type="line"/>
			<point x="196" y="670" type="line"/>
		</contour>
		<contour>
			<point x="274" y="670" type="line"/>
			<point x="9" y="670" type="line"/>
			<point x="9" y="575" type="line"/>
			<point x="274" y="575" type="line"/>
		</contour>
	</outline>
</glyph>
<glyph name="U" format="2">
	<advance width="632"/>
	<unicode hex="0055"/>
	<outline>
		<contour>
			<point x="65" y="670" type="line"/>
			<point x="65" y="212" type="line"/>
			<point x="65" y="68"/>
			<point x="152" y="-14"/>
			<point x="316" y="-14" type="curve"/>
			<point x="480" y="-14"/>
			<point x="567" y="68"/>
			<point x="567" y="212" type="curve"/>
			<point x="567" y="670" type="line"/>
			<point x="446" y="670" type="line"/>
			<point x="446" y="212" type="line" smooth="yes"/>
			<point x="446" y="127"/>
			<point x="407" y="81"/>
			<point x="316" y="81" type="curve"/>
			<point x="225" y="81"/>
			<point x="186" y="127"/>
			<point x="186" y="212" type="curve"/>
			<point x="186" y="670" type="line"/>
		</contour>
	</outline>
</glyph>
<glyph name="W" format="2">
	<advance width="808"/>
	<unicode hex="0057"/>
	<outline>
		<contour>
			<point x="808" y="670" type="line"/>
			<point x="682" y="670" type="line"/>
			<point x="548" y="72" type="line"/>
			<point x="598" y="72" type="line"/>
			<point x="462" y="670" type="line"/>
			<point x="346" y="670" type="line"/>
			<point x="208" y="72" type="line"/>
			<point x="259" y="72" type="line"/>
			<point x="126" y="670" type="line"/>
			<point x="0" y="670" type="line"/>
			<point x="162" y="0" type="line"/>
			<point x="295" y="0" type="line"/>
			<point x="426" y="540" type="line"/>
			<point x="381" y="540" type="line"/>
			<point x="510" y="0" type="line"/>
			<point x="645" y="0" type="line"/>
		</contour>
	</outline>
</glyph>
<glyph name="Y" format="2">
	<advance width="558"/>
	<unicode hex="0059"/>
	<outline>
		<contour>
			<point x="213" y="0" type="line"/>
			<point x="334" y="0" type="line"/>
			<point x="334" y="340" type="line"/>
			<point x="213" y="340" type="line"/>
		</contour>
		<contour>
			<point x="231" y="296" type="line"/>
			<point x="313" y="247" type="line"/>
			<point x="566" y="670" type="line"/>
			<point x="436" y="670" type="line"/>
		</contour>
		<contour>
			<point x="-9" y="670" type="line"/>
			<point x="232" y="248" type="line"/>
			<point x="320" y="295" type="line"/>
			<point x="121" y="670" type="line"/>
		</contour>
	</outline>
</glyph>
<glyph name="Z" format="2">
	<advance width="530"/>
	<unicode hex="005A"/>
	<outline>
		<contour>
			<point x="362" y="575" type="line"/>
			<point x="16" y="95" type="line"/>
			<point x="154" y="95" type="line"/>
			<point x="500" y="575" type="line"/>
		</contour>
		<contour>
			<point x="41" y="670" type="line"/>
			<point x="41" y="575" type="line"/>
			<point x="500" y="575" type="line"/>
			<point x="500" y="670" type="line"/>
		</contour>
		<contour>
			<point x="16" y="95" type="line"/>
			<point x="16" y="0" type="line"/>
			<point x="504" y="0" type="line"/>
			<point x="504" y="95" type="line"/>
		</contour>
	</outline>
</glyph>
<glyph name="underscore" format="2">
	<advance width="566"/>
	<unicode hex="005F"/>
	<outline>
		<contour>
			<point x="488" y="-4" type="line"/>
			<point x="78" y="-4" type="line"/>
			<point x="78" y="-103" type="line"/>
			<point x="488" y="-103" type="line"/>
		</contour>
	</outline>
</glyph>
<glyph name="grave" format="2">
	<advance width="285"/>
	<unicode hex="0060"/>
	<anchor x="204" y="518" name="_top"/>
	<outline>
		<contour>
			<point x="253" y="604" type="line"/>
			<point x="165" y="766" type="line"/>
			<point x="33" y="766" type="line"/>
			<point x="188" y="604" type="line"/>
		</contour>
	</outline>
</glyph>
<glyph name="a" format="2">
	<advance width="541"/>
	<unicode hex="0061"/>
	<anchor x="251" y="516" name="top"/>
	<outline>
		<contour>
			<point x="243" y="75" type="curve"/>
			<point x="243" y="75" type="line"/>
			<point x="180" y="75"/>
			<point x="154" y="109"/>
			<point x="154" y="148" type="curve"/>
			<point x="154" y="187"/>
			<point x="178" y="215"/>
			<point x="245" y="229" type="curve"/>
			<point x="313" y="243"/>
			<point x="340" y="250"/>
			<point x="396" y="284" type="curve"/>
			<point x="367" y="293" type="line"/>
			<point x="369" y="262"/>
			<point x="369" y="231"/>
			<point x="369" y="191" type="curve"/>
			<point x="369" y="154"/>
			<point x="356" y="127"/>
			<point x="329" y="106" type="curve"/>
			<point x="307" y="89"/>
			<point x="279" y="75"/>
		</contour>
		<contour>
			<point x="42" y="360" type="curve"/>
			<point x="42" y="360" type="line"/>
			<point x="166" y="360" type="line"/>
			<point x="170" y="421"/>
			<point x="206" y="446"/>
			<point x="274" y="446" type="curve"/>
			<point x="344" y="446"/>
			<point x="373" y="414"/>
			<point x="368" y="320" type="curve"/>
			<point x="394" y="357" type="line"/>
			<point x="325" y="318"/>
			<point x="269" y="316"/>
			<point x="203" y="303" type="curve"/>
			<point x="89" y="281"/>
			<point x="40" y="231"/>
			<point x="40" y="143" type="curve"/>
			<point x="40" y="55"/>
			<point x="112" y="-12"/>
			<point x="213" y="-12" type="curve"/>
			<point x="291" y="-12"/>
			<point x="359" y="15"/>
			<point x="412" y="132" type="curve"/>
			<point x="371" y="132" type="line"/>
			<point x="371" y="64"/>
			<point x="372" y="31"/>
			<point x="381" y="0" type="curve"/>
			<point x="497" y="0" type="line"/>
			<point x="497" y="10" type="line"/>
			<point x="471" y="79"/>
			<point x="481" y="201"/>
			<point x="481" y="358" type="curve"/>
			<point x="481" y="473"/>
			<point x="387" y="530"/>
			<point x="272" y="530" type="curve"/>
			<point x="123" y="530"/>
			<point x="50" y="460"/>
		</contour>
		<contour>
			<point x="397" y="104" type="line"/>
			<point x="355" y="104" type="line"/>
			<point x="355" y="54" type="line"/>
			<point x="397" y="54" type="line"/>
		</contour>
	</outline>
</glyph>
<glyph name="c" format="2">
	<advance width="534"/>
	<unicode hex="0063"/>
	<outline>
		<contour>
			<point x="272" y="-12" type="curve"/>
			<point x="272" y="-12" type="line"/>
			<point x="396" y="-12"/>
			<point x="481" y="47"/>
			<point x="511" y="155" type="curve"/>
			<point x="388" y="177" type="line"/>
			<point x="378" y="112"/>
			<point x="343" y="81"/>
			<point x="280" y="81" type="curve"/>
			<point x="206" y="81"/>
			<point x="167" y="143"/>
			<point x="167" y="261" type="curve"/>
			<point x="167" y="376"/>
			<point x="205" y="436"/>
			<point x="277" y="436" type="curve"/>
			<point x="342" y="436"/>
			<point x="377" y="404"/>
			<point x="387" y="339" type="curve"/>
			<point x="510" y="360" type="line"/>
			<point x="479" y="470"/>
			<point x="400" y="530"/>
			<point x="285" y="530" type="curve"/>
			<point x="133" y="530"/>
			<point x="42" y="425"/>
			<point x="42" y="252" type="curve"/>
			<point x="42" y="87"/>
			<point x="128" y="-12"/>
		</contour>
	</outline>
</glyph>
<glyph name="g" format="2">
	<advance width="589"/>
	<unicode hex="0067"/>
	<outline>
		<contour>
			<point x="42" y="259" type="curve"/>
			<point x="42" y="259" type="line"/>
			<point x="42" y="91"/>
			<point x="138" y="-8"/>
			<point x="264" y="-8" type="curve"/>
			<point x="331" y="-8"/>
			<point x="373" y="21"/>
			<point x="402" y="66" type="curve"/>
			<point x="411" y="66" type="line"/>
			<point x="411" y="7" type="line" smooth="yes"/>
			<point x="411" y="-78"/>
			<point x="369" y="-116"/>
			<point x="285" y="-116" type="curve"/>
			<point x="213" y="-116"/>
			<point x="180" y="-91"/>
			<point x="159" y="-30" type="curve"/>
			<point x="53" y="-81" type="line"/>
			<point x="85" y="-161"/>
			<point x="165" y="-200"/>
			<point x="275" y="-200" type="curve"/>
			<point x="450" y="-200"/>
			<point x="532" y="-106"/>
			<point x="532" y="54" type="curve"/>
			<point x="532" y="518" type="line"/>
			<point x="423" y="518" type="line"/>
			<point x="423" y="454" type="line"/>
			<point x="416" y="454" type="line"/>
			<point x="389" y="502"/>
			<point x="344" y="530"/>
			<point x="273" y="530" type="curve"/>
			<point x="134" y="530"/>
			<point x="42" y="428"/>
		</contour>
		<contour>
			<point x="165" y="261" type="curve"/>
			<point x="165" y="261" type="line"/>
			<point x="165" y="371"/>
			<point x="208" y="437"/>
			<point x="291" y="437" type="curve"/>
			<point x="365" y="437"/>
			<point x="415" y="374"/>
			<point x="415" y="258" type="curve"/>
			<point x="415" y="143"/>
			<point x="365" y="82"/>
			<point x="289" y="82" type="curve"/>
			<point x="210" y="82"/>
			<point x="165" y="151"/>
		</contour>
	</outline>
</glyph>
<glyph name="k" format="2">
	<advance width="505"/>
	<unicode hex="006B"/>
	<outline>
		<contour>
			<point x="127" y="250" type="line"/>
			<point x="127" y="101" type="line"/>
			<point x="284" y="300" type="line"/>
			<point x="306" y="300" type="line"/>
			<point x="507" y="518" type="line"/>
			<point x="370" y="518" type="line"/>
		</contour>
		<contour>
			<point x="297" y="317" type="line"/>
			<point x="127" y="317" type="line"/>
			<point x="219" y="265" type="line"/>
			<point x="372" y="0" type="line"/>
			<point x="510" y="0" type="line"/>
			<point x="297" y="374" type="line"/>
		</contour>
		<contour>
			<point x="59" y="0" type="line"/>
			<point x="183" y="0" type="line"/>
			<point x="183" y="706" type="line"/>
			<point x="59" y="706" type="line"/>
		</contour>
	</outline>
</glyph>
<glyph name="m" format="2">
	<advance width="887"/>
	<unicode hex="006D"/>
	<outline>
		<contour>
			<point x="183" y="0" type="line"/>
			<point x="183" y="444" type="line"/>
			<point x="173" y="444" type="line"/>
			<point x="173" y="518" type="line"/>
			<point x="58" y="518" type="line"/>
			<point x="58" y="0" type="line"/>
		</contour>
		<contour>
			<point x="381" y="306" type="curve"/>
			<point x="381" y="0" type="line"/>
			<point x="506" y="0" type="line"/>
			<point x="506" y="335" type="line" smooth="yes"/>
			<point x="506" y="463"/>
			<point x="440" y="530"/>
			<point x="326" y="530" type="curve"/>
			<point x="212" y="530"/>
			<point x="144" y="434"/>
			<point x="145" y="272" type="curve"/>
			<point x="183" y="270" type="line"/>
			<point x="183" y="380"/>
			<point x="220" y="438"/>
			<point x="290" y="438" type="curve"/>
			<point x="351" y="438"/>
			<point x="381" y="395"/>
		</contour>
		<contour>
			<point x="704" y="306" type="curve"/>
			<point x="704" y="0" type="line"/>
			<point x="830" y="0" type="line"/>
			<point x="830" y="333" type="line" smooth="yes"/>
			<point x="830" y="461"/>
			<point x="764" y="530"/>
			<point x="650" y="530" type="curve"/>
			<point x="536" y="530"/>
			<point x="467" y="434"/>
			<point x="468" y="272" type="curve"/>
			<point x="506" y="270" type="line"/>
			<point x="506" y="380"/>
			<point x="543" y="438"/>
			<point x="613" y="438" type="curve"/>
			<point x="674" y="438"/>
			<point x="704" y="395"/>
		</contour>
	</outline>
</glyph>
<glyph name="n" format="2">
	<advance width="563"/>
	<unicode hex="006E"/>
	<outline>
		<contour>
			<point x="183" y="0" type="line"/>
			<point x="183" y="445" type="line"/>
			<point x="173" y="445" type="line"/>
			<point x="173" y="518" type="line"/>
			<point x="58" y="518" type="line"/>
			<point x="58" y="0" type="line"/>
		</contour>
		<contour>
			<point x="381" y="307" type="curve"/>
			<point x="381" y="0" type="line"/>
			<point x="506" y="0" type="line"/>
			<point x="506" y="343" type="line" smooth="yes"/>
			<point x="506" y="469"/>
			<point x="438" y="530"/>
			<point x="330" y="530" type="curve"/>
			<point x="223" y="530"/>
			<point x="150" y="458"/>
			<point x="150" y="290" type="curve"/>
			<point x="183" y="283" type="line"/>
			<point x="183" y="390"/>
			<point x="223" y="437"/>
			<point x="291" y="437" type="curve"/>
			<point x="347" y="437"/>
			<point x="381" y="402"/>
		</contour>
	</outline>
</glyph>
<glyph name="o" format="2">
	<advance width="585"/>
	<unicode hex="006F"/>
	<anchor x="301" y="518" name="top"/>
	<outline>
		<contour>
			<point x="42" y="254" type="curve"/>
			<point x="42" y="254" type="line"/>
			<point x="42" y="88"/>
			<point x="133" y="-12"/>
			<point x="285" y="-12" type="curve"/>
			<point x="445" y="-12"/>
			<point x="543" y="92"/>
			<point x="543" y="262" type="curve"/>
			<point x="543" y="429"/>
			<point x="449" y="530"/>
			<point x="294" y="530" type="curve"/>
			<point x="137" y="530"/>
			<point x="42" y="426"/>
		</contour>
		<contour>
			<point x="167" y="261" type="curve"/>
			<point x="167" y="261" type="line"/>
			<point x="167" y="377"/>
			<point x="209" y="437"/>
			<point x="288" y="437" type="curve"/>
			<point x="373" y="437"/>
			<point x="417" y="375"/>
			<point x="417" y="256" type="curve"/>
			<point x="417" y="141"/>
			<point x="374" y="81"/>
			<point x="291" y="81" type="curve"/>
			<point x="209" y="81"/>
			<point x="167" y="143"/>
		</contour>
	</outline>
</glyph>
<glyph name="p" format="2">
	<advance width="589"/>
	<unicode hex="0070"/>
	<outline>
		<contour>
			<point x="58" y="518" type="line"/>
			<point x="58" y="-188" type="line"/>
			<point x="183" y="-188" type="line"/>
			<point x="182" y="-12" type="line"/>
			<point x="180" y="48" type="line"/>
			<point x="186" y="48" type="line"/>
			<point x="212" y="10"/>
			<point x="257" y="-12"/>
			<point x="313" y="-12" type="curve"/>
			<point x="454" y="-12"/>
			<point x="547" y="90"/>
			<point x="547" y="260" type="curve"/>
			<point x="547" y="428"/>
			<point x="459" y="530"/>
			<point x="326" y="530" type="curve"/>
			<point x="258" y="530"/>
			<point x="206" y="505"/>
			<point x="175" y="455" type="curve"/>
			<point x="165" y="455" type="line"/>
			<point x="165" y="518" type="line"/>
		</contour>
		<contour>
			<point x="174" y="261" type="curve"/>
			<point x="174" y="261" type="line"/>
			<point x="174" y="375"/>
			<point x="222" y="436"/>
			<point x="297" y="436" type="curve"/>
			<point x="378" y="436"/>
			<point x="424" y="365"/>
			<point x="424" y="253" type="curve"/>
			<point x="424" y="145"/>
			<point x="382" y="80"/>
			<point x="301" y="80" type="curve"/>
			<point x="226" y="80"/>
			<point x="174" y="144"/>
		</contour>
	</outline>
</glyph>
<glyph name="t" format="2">
	<advance width="368"/>
	<unicode hex="0074"/>
	<outline>
		<contour>
			<point x="222" y="129" type="curve"/>
			<point x="222" y="129" type="line"/>
			<point x="222" y="706" type="line"/>
			<point x="103" y="706" type="line"/>
			<point x="103" y="122" type="line" smooth="yes"/>
			<point x="103" y="31"/>
			<point x="155" y="-12"/>
			<point x="250" y="-12" type="curve"/>
			<point x="284" y="-12"/>
			<point x="310" y="-8"/>
			<point x="333" y="-2" type="curve"/>
			<point x="333" y="89" type="line"/>
			<point x="305" y="83"/>
			<point x="293" y="82"/>
			<point x="273" y="82" type="curve"/>
			<point x="238" y="82"/>
			<point x="222" y="99"/>
		</contour>
		<contour>
			<point x="6" y="518" type="line"/>
			<point x="6" y="429" type="line"/>
			<point x="342" y="429" type="line"/>
			<point x="342" y="518" type="line"/>
		</contour>
	</outline>
</glyph>
<glyph name="u" format="2">
	<advance width="559"/>
	<unicode hex="0075"/>
	<anchor x="267" y="518" name="top"/>
	<outline>
		<contour>
			<point x="376" y="518" type="line"/>
			<point x="376" y="73" type="line"/>
			<point x="386" y="73" type="line"/>
			<point x="386" y="0" type="line"/>
			<point x="502" y="0" type="line"/>
			<point x="502" y="518" type="line"/>
		</contour>
		<contour>
			<point x="182" y="211" type="curve"/>
			<point x="182" y="518" type="line"/>
			<point x="58" y="518" type="line"/>
			<point x="58" y="177" type="line" smooth="yes"/>
			<point x="58" y="51"/>
			<point x="126" y="-12"/>
			<point x="232" y="-12" type="curve"/>
			<point x="336" y="-12"/>
			<point x="410" y="60"/>
			<point x="410" y="228" type="curve"/>
			<point x="376" y="235" type="line"/>
			<point x="376" y="128"/>
			<point x="337" y="81"/>
			<point x="271" y="81" type="curve"/>
			<point x="217" y="81"/>
			<point x="182" y="116"/>
		</contour>
	</outline>
</glyph>
<glyph name="v" format="2">
	<advance width="496"/>
	<unicode hex="0076"/>
	<outline>
		<contour>
			<point x="0" y="518" type="line"/>
			<point x="175" y="0" type="line"/>
			<point x="320" y="0" type="line"/>
			<point x="496" y="518" type="line"/>
			<point x="375" y="518" type="line"/>
			<point x="225" y="16" type="line"/>
			<point x="279" y="16" type="line"/>
			<point x="129" y="518" type="line"/>
		</contour>
	</outline>
</glyph>
<glyph name="x" format="2">
	<advance width="480"/>
	<unicode hex="0078"/>
	<outline>
		<contour>
			<point x="8" y="518" type="line"/>
			<point x="350" y="0" type="line"/>
			<point x="478" y="0" type="line"/>
			<point x="136" y="518" type="line"/>
		</contour>
		<contour>
			<point x="125" y="0" type="line"/>
			<point x="271" y="237" type="line"/>
			<point x="217" y="308" type="line"/>
			<point x="2" y="0" type="line"/>
		</contour>
		<contour>
			<point x="345" y="518" type="line"/>
			<point x="215" y="294" type="line"/>
			<point x="270" y="221" type="line"/>
			<point x="467" y="518" type="line"/>
		</contour>
	</outline>
</glyph>
<glyph name="y" format="2">
	<advance width="508"/>
	<unicode hex="0079"/>
	<outline>
		<contour>
			<point x="0" y="518" type="line"/>
			<point x="244" y="-91" type="line"/>
			<point x="357" y="62" type="line"/>
			<point x="508" y="518" type="line"/>
			<point x="386" y="518" type="line"/>
			<point x="242" y="40" type="line"/>
			<point x="298" y="40" type="line"/>
			<point x="130" y="518" type="line"/>
		</contour>
		<contour>
			<point x="77" y="-89" type="curve"/>
			<point x="58" y="-189" type="line"/>
			<point x="86" y="-196"/>
			<point x="108" y="-200"/>
			<point x="135" y="-200" type="curve"/>
			<point x="234" y="-200"/>
			<point x="285" y="-155"/>
			<point x="323" y="-41" type="curve"/>
			<point x="361" y="75" type="line"/>
			<point x="252" y="75" type="line"/>
			<point x="210" y="-37" type="line" smooth="yes"/>
			<point x="191" y="-87"/>
			<point x="175" y="-103"/>
			<point x="142" y="-103" type="curve"/>
			<point x="121" y="-103"/>
			<point x="105" y="-100"/>
		</contour>
	</outline>
</glyph>
<glyph name="exclamdown" format="2">
	<advance width="315"/>
	<unicode hex="00A1"/>
	<outline>
		<contour>
			<point x="90" y="529" type="line"/>
			<point x="90" y="407" type="line"/>
			<point x="225" y="407" type="line"/>
			<point x="225" y="529" type="line"/>
		</contour>
		<contour>
			<point x="90" y="-163" type="line"/>
			<point x="226" y="-163" type="line"/>
			<point x="207" y="363" type="line"/>
			<point x="108" y="363" type="line"/>
		</contour>
	</outline>
</glyph>
<glyph name="dieresis" format="2">
	<advance width="317"/>
	<unicode hex="00A8"/>
	<anchor x="168" y="530" name="_top"/>
	<outline>
		<contour>
			<point x="122" y="706" type="line"/>
			<point x="26" y="706" type="line"/>
			<point x="26" y="610" type="line"/>
			<point x="122" y="610" type="line"/>
		</contour>
		<contour>
			<point x="291" y="706" type="line"/>
			<point x="195" y="706" type="line"/>
			<point x="195" y="610" type="line"/>
			<point x="291" y="610" type="line"/>
		</contour>
	</outline>
</glyph>
<glyph name="copyright" format="2">
	<advance width="926"/>
	<unicode hex="00A9"/>
	<outline>
		<contour>
			<point x="463" y="-99" type="curve"/>
			<point x="463" y="-99" type="line"/>
			<point x="231" y="-99"/>
			<point x="67" y="68"/>
			<point x="67" y="298" type="curve"/>
			<point x="67" y="536"/>
			<point x="245" y="705"/>
			<point x="463" y="705" type="curve"/>
			<point x="681" y="705"/>
			<point x="859" y="536"/>
			<point x="859" y="298" type="curve"/>
			<point x="859" y="68"/>
			<point x="695" y="-99"/>
		</contour>
		<contour>
			<point x="463" y="647" type="curve"/>
			<point x="463" y="647" type="line"/>
			<point x="267" y="647"/>
			<point x="131" y="500"/>
			<point x="131" y="299" type="curve"/>
			<point x="131" y="96"/>
			<point x="283" y="-42"/>
			<point x="463" y="-42" type="curve"/>
			<point x="642" y="-42"/>
			<point x="794" y="96"/>
			<point x="794" y="299" type="curve"/>
			<point x="794" y="500"/>
			<point x="659" y="647"/>
		</contour>
		<contour>
			<point x="461" y="87" type="curve"/>
			<point x="461" y="87" type="line"/>
			<point x="561" y="87"/>
			<point x="628" y="133"/>
			<point x="657" y="218" type="curve"/>
			<point x="576" y="233" type="line"/>
			<point x="565" y="180"/>
			<point x="527" y="152"/>
			<point x="468" y="151" type="curve"/>
			<point x="392" y="150"/>
			<point x="352" y="209"/>
			<point x="353" y="308" type="curve"/>
			<point x="354" y="404"/>
			<point x="391" y="460"/>
			<point x="465" y="460" type="curve"/>
			<point x="526" y="460"/>
			<point x="564" y="431"/>
			<point x="575" y="377" type="curve"/>
			<point x="656" y="391" type="line"/>
			<point x="627" y="478"/>
			<point x="565" y="524"/>
			<point x="471" y="524" type="curve"/>
			<point x="346" y="524"/>
			<point x="270" y="438"/>
			<point x="270" y="300" type="curve"/>
			<point x="270" y="169"/>
			<point x="341" y="87"/>
		</contour>
	</outline>
</glyph>
<glyph name="macron" format="2">
	<advance width="361"/>
	<unicode hex="00AF"/>
	<anchor x="169" y="530" name="_top"/>
	<outline>
		<contour>
			<point x="329" y="689" type="line"/>
			<point x="329" y="765" type="line"/>
			<point x="33" y="765" type="line"/>
			<point x="33" y="689" type="line"/>
		</contour>
	</outline>
</glyph>
<glyph name="cedilla" format="2">
	<advance width="269"/>
	<unicode hex="00B8"/>
	<outline>
		<contour>
			<point x="52" y="-121" type="curve"/>
			<point x="52" y="-121" type="line"/>
			<point x="33" y="-164" type="line"/>
			<point x="48" y="-170"/>
			<point x="82" y="-180"/>
			<point x="115" y="-180" type="curve"/>
			<point x="188" y="-180"/>
			<point x="237" y="-148"/>
			<point x="237" y="-109" type="curve"/>
			<point x="237" y="-33"/>
			<point x="117" y="-61"/>
			<point x="117" y="-38" type="curve"/>
			<point x="117" y="-29"/>
			<point x="126" y="-19"/>
			<point x="167" y="-11" type="curve"/>
			<point x="167" y="0" type="line"/>
			<point x="73" y="-14"/>
			<point x="61" y="-36"/>
			<point x="61" y="-51" type="curve"/>
			<point x="61" y="-92"/>
			<point x="172" y="-71"/>
			<point x="172" y="-109" type="curve"/>
			<point x="172" y="-122"/>
			<point x="163" y="-136"/>
			<point x="119" y="-136" type="curve"/>
			<point x="90" y="-136"/>
			<point x="72" y="-128"/>
		</contour>
	</outline>
</glyph>
<glyph name="Ccedilla" format="2">
	<advance width="651"/>
	<unicode hex="00C7"/>
	<outline>
		<contour>
			<point x="248" y="-122" type="curve"/>
			<point x="248" y="-122" type="line"/>
			<point x="229" y="-165" type="line"/>
			<point x="244" y="-171"/>
			<point x="278" y="-181"/>
			<point x="311" y="-181" type="curve"/>
			<point x="384" y="-181"/>
			<point x="433" y="-149"/>
			<point x="433" y="-110" type="curve"/>
			<point x="433" y="-34"/>
			<point x="313" y="-62"/>
			<point x="313" y="-39" type="curve"/>
			<point x="313" y="-30"/>
			<point x="322" y="-20"/>
			<point x="363" y="-12" type="curve"/>
			<point x="363" y="-1" type="line"/>
			<point x="269" y="-15"/>
			<point x="257" y="-37"/>
			<point x="257" y="-52" type="curve"/>
			<point x="257" y="-93"/>
			<point x="368" y="-72"/>
			<point x="368" y="-110" type="curve"/>
			<point x="368" y="-123"/>
			<point x="359" y="-137"/>
			<point x="315" y="-137" type="curve"/>
			<point x="286" y="-137"/>
			<point x="268" y="-129"/>
		</contour>
		<component base="C" xOffset="6"/>
	</outline>
</glyph>
<glyph name="Eacute" format="2">
	<advance width="546"/>
	<unicode hex="00C9"/>
	<outline>
		<contour>
			<point x="356" y="800" type="line"/>
			<point x="253" y="716" type="line"/>
			<point x="253" y="706" type="line"/>
			<point x="316" y="706" type="line"/>
			<point x="492" y="790" type="line"/>
			<point x="492" y="800" type="line"/>
		</contour>
		<component base="E" xOffset="11"/>
	</outline>
</glyph>
<glyph name="Iacute" format="2">
	<advance width="252"/>
	<unicode hex="00CD"/>
	<outline>
		<contour>
			<point x="187" y="800" type="line"/>
			<point x="84" y="716" type="line"/>
			<point x="84" y="706" type="line"/>
			<point x="147" y="706" type="line"/>
			<point x="323" y="790" type="line"/>
			<point x="323" y="800" type="line"/>
		</contour>
		<component base="I"/>
	</outline>
</glyph>
<glyph name="Ntilde" format="2">
	<advance width="641"/>
	<unicode hex="00D1"/>
	<outline>
		<contour>
			<point x="485" y="801" type="curve"/>
			<point x="427" y="801" type="line"/>
			<point x="427" y="779"/>
			<point x="413" y="767"/>
			<point x="392" y="767" type="curve"/>
			<point x="357" y="767"/>
			<point x="314" y="797"/>
			<point x="260" y="797" type="curve"/>
			<point x="217" y="797"/>
			<point x="173" y="775"/>
			<point x="171" y="703" type="curve"/>
			<point x="229" y="703" type="line"/>
			<point x="229" y="725"/>
			<point x="244" y="737"/>
			<point x="265" y="737" type="curve"/>
			<point x="312" y="737"/>
			<point x="349" y="707"/>
			<point x="397" y="707" type="curve"/>
			<point x="439" y="707"/>
			<point x="483" y="729"/>
		</contour>
		<component base="N"/>
	</outline>
</glyph>
<glyph name="Oacute" format="2">
	<advance width="673"/>
	<unicode hex="00D3"/>
	<outline>
		<contour>
			<point x="410" y="800" type="line"/>
			<point x="307" y="716" type="line"/>
			<point x="307" y="706" type="line"/>
			<point x="370" y="706" type="line"/>
			<point x="546" y="790" type="line"/>
			<point x="546" y="800" type="line"/>
		</contour>
		<component base="O" xOffset="6"/>
	</outline>
</glyph>
<glyph name="Ocircumflex" format="2">
	<advance width="673"/>
	<unicode hex="00D4"/>
	<outline>
		<contour>
			<point x="486" y="716" type="line"/>
			<point x="373" y="800" type="line"/>
			<point x="303" y="800" type="line"/>
			<point x="190" y="716" type="line"/>
			<point x="190" y="706" type="line"/>
			<point x="273" y="706" type="line"/>
			<point x="338" y="760" type="line"/>
			<point x="403" y="706" type="line"/>
			<point x="486" y="706" type="line"/>
		</contour>
		<component base="O" xOffset="6"/>
	</outline>
</glyph>
<glyph name="Udieresis" format="2">
	<advance width="635"/>
	<unicode hex="00DC"/>
	<outline>
		<contour>
			<point x="458" y="800" type="line"/>
			<point x="362" y="800" type="line"/>
			<point x="362" y="716" type="line"/>
			<point x="458" y="716" type="line"/>
		</contour>
		<contour>
			<point x="282" y="800" type="line"/>
			<point x="186" y="800" type="line"/>
			<point x="186" y="716" type="line"/>
			<point x="282" y="716" type="line"/>
		</contour>
		<component base="U" xOffset="16"/>
	</outline>
</glyph>
<glyph name="Yacute" format="2">
	<advance width="557"/>
	<unicode hex="00DD"/>
	<outline>
		<contour>
			<point x="347" y="800" type="line"/>
			<point x="244" y="716" type="line"/>
			<point x="244" y="706" type="line"/>
			<point x="307" y="706" type="line"/>
			<point x="483" y="790" type="line"/>
			<point x="483" y="800" type="line"/>
		</contour>
		<component base="Y" xOffset="-3"/>
	</outline>
</glyph>
<glyph name="ntilde" format="2">
	<advance width="563"/>
	<unicode hex="00F1"/>
	<outline>
		<contour>
			<point x="183" y="0" type="line"/>
			<point x="183" y="445" type="line"/>
			<point x="173" y="445" type="line"/>
			<point x="173" y="518" type="line"/>
			<point x="58" y="518" type="line"/>
			<point x="58" y="0" type="line"/>
		</contour>
		<contour>
			<point x="381" y="307" type="curve"/>
			<point x="381" y="0" type="line"/>
			<point x="506" y="0" type="line"/>
			<point x="506" y="343" type="line" smooth="yes"/>
			<point x="506" y="469"/>
			<point x="438" y="530"/>
			<point x="330" y="530" type="curve"/>
			<point x="223" y="530"/>
			<point x="150" y="458"/>
			<point x="150" y="290" type="curve"/>
			<point x="183" y="283" type="line"/>
			<point x="183" y="390"/>
			<point x="223" y="437"/>
			<point x="291" y="437" type="curve"/>
			<point x="347" y="437"/>
			<point x="381" y="402"/>
		</contour>
		<contour>
			<point x="436" y="725" type="curve"/>
			<point x="376" y="725" type="line"/>
			<point x="376" y="702"/>
			<point x="361" y="690"/>
			<point x="339" y="690" type="curve"/>
			<point x="306" y="690"/>
			<point x="265" y="721"/>
			<point x="211" y="721" type="curve"/>
			<point x="168" y="721"/>
			<point x="122" y="697"/>
			<point x="120" y="621" type="curve"/>
			<point x="180" y="621" type="line"/>
			<point x="180" y="644"/>
			<point x="195" y="656"/>
			<point x="217" y="656" type="curve"/>
			<point x="264" y="656"/>
			<point x="297" y="625"/>
			<point x="345" y="625" type="curve"/>
			<point x="388" y="625"/>
			<point x="434" y="649"/>
		</contour>
	</outline>
</glyph>
<glyph name="dotlessi" format="2">
	<advance width="234"/>
	<unicode hex="0131"/>
	<anchor x="117" y="518" name="top"/>
	<outline>
		<contour>
			<point x="54" y="518" type="line"/>
			<point x="54" y="0" type="line"/>
			<point x="180" y="0" type="line"/>
			<point x="180" y="518" type="line"/>
		</contour>
	</outline>
</glyph>
<glyph name="lslash" format="2">
	<advance width="251"/>
	<unicode hex="0142"/>
	<outline>
		<contour>
			<point x="11" y="312" type="line"/>
			<point x="11" y="238" type="line"/>
			<point x="240" y="379" type="line"/>
			<point x="240" y="454" type="line"/>
		</contour>
		<component base="l" xOffset="1"/>
	</outline>
</glyph>
<glyph name="Ydieresis" format="2">
	<advance width="557"/>
	<unicode hex="0178"/>
	<outline>
		<contour>
			<point x="412" y="800" type="line"/>
			<point x="316" y="800" type="line"/>
			<point x="316" y="716" type="line"/>
			<point x="412" y="716" type="line"/>
		</contour>
		<contour>
			<point x="236" y="800" type="line"/>
			<point x="140" y="800" type="line"/>
			<point x="140" y="716" type="line"/>
			<point x="236" y="716" type="line"/>
		</contour>
		<component base="Y" xOffset="-3"/>
	</outline>
</glyph>
<glyph name="Zcaron" format="2">
	<advance width="530"/>
	<unicode hex="017D"/>
	<outline>
		<contour>
			<point x="235" y="706" type="line"/>
			<point x="305" y="706" type="line"/>
			<point x="418" y="790" type="line"/>
			<point x="418" y="800" type="line"/>
			<point x="335" y="800" type="line"/>
			<point x="270" y="746" type="line"/>
			<point x="205" y="800" type="line"/>
			<point x="122" y="800" type="line"/>
			<point x="122" y="790" type="line"/>
		</contour>
		<component base="Z" xOffset="3"/>
	</outline>
</glyph>
<glyph name="circumflex" format="2">
	<advance width="355"/>
	<unicode hex="02C6"/>
	<outline>
		<contour>
			<point x="323" y="604" type="line"/>
			<point x="200" y="766" type="line"/>
			<point x="156" y="766" type="line"/>
			<point x="33" y="604" type="line"/>
			<point x="85" y="604" type="line"/>
			<point x="171" y="673" type="line"/>
			<point x="185" y="673" type="line"/>
			<point x="271" y="604" type="line"/>
		</contour>
	</outline>
</glyph>
<glyph name="dotaccent" format="2">
	<advance width="191"/>
	<unicode hex="02D9"/>
	<anchor x="95" y="530" name="_top"/>
	<outline>
		<contour>
			<point x="33" y="706" type="line"/>
			<point x="33" y="593" type="line"/>
			<point x="158" y="593" type="line"/>
			<point x="158" y="706" type="line"/>
		</contour>
	</outline>
</glyph>
<glyph name="ring" format="2">
	<advance width="245"/>
	<unicode hex="02DA"/>
	<outline>
		<contour>
			<point x="33" y="680" type="curve"/>
			<point x="33" y="680" type="line"/>
			<point x="33" y="630"/>
			<point x="73" y="593"/>
			<point x="123" y="593" type="curve"/>
			<point x="173" y="593"/>
			<point x="213" y="630"/>
			<point x="213" y="680" type="curve"/>
			<point x="213" y="730"/>
			<point x="173" y="766"/>
			<point x="123" y="766" type="curve"/>
			<point x="73" y="766"/>
			<point x="33" y="730"/>
		</contour>
		<contour>
			<point x="77" y="680" type="curve"/>
			<point x="77" y="680" type="line"/>
			<point x="77" y="705"/>
			<point x="98" y="725"/>
			<point x="123" y="725" type="curve"/>
			<point x="148" y="725"/>
			<point x="169" y="705"/>
			<point x="169" y="680" type="curve"/>
			<point x="169" y="655"/>
			<point x="147" y="635"/>
			<point x="123" y="635" type="curve"/>
			<point x="98" y="635"/>
			<point x="77" y="655"/>
		</contour>
	</outline>
</glyph>
<glyph name="ogonek" format="2">
	<advance width="248"/>
	<unicode hex="02DB"/>
	<outline>
		<contour>
			<point x="216" y="-162" type="curve"/>
			<point x="216" y="-162" type="line"/>
			<point x="216" y="-121" type="line"/>
			<point x="205" y="-126"/>
			<point x="180" y="-135"/>
			<point x="157" y="-135" type="curve"/>
			<point x="131" y="-135"/>
			<point x="107" y="-126"/>
			<point x="107" y="-99" type="curve"/>
			<point x="107" y="-68"/>
			<point x="131" y="-47"/>
			<point x="203" y="-6" type="curve"/>
			<point x="176" y="-6" type="line"/>
			<point x="65" y="-50"/>
			<point x="33" y="-79"/>
			<point x="33" y="-121" type="curve"/>
			<point x="33" y="-150"/>
			<point x="55" y="-184"/>
			<point x="121" y="-184" type="curve"/>
			<point x="166" y="-184"/>
			<point x="194" y="-172"/>
		</contour>
	</outline>
</glyph>
<glyph name="hungarumlaut" format="2">
	<advance width="402"/>
	<unicode hex="02DD"/>
	<outline>
		<contour>
			<point x="253" y="766" type="line"/>
			<point x="121" y="766" type="line"/>
			<point x="33" y="604" type="line"/>
			<point x="98" y="604" type="line"/>
		</contour>
		<contour>
			<point x="402" y="766" type="line"/>
			<point x="270" y="766" type="line"/>
			<point x="182" y="604" type="line"/>
			<point x="247" y="604" type="line"/>
		</contour>
	</outline>
</glyph>
<glyph name="endash" format="2">
	<advance width="566"/>
	<unicode hex="2013"/>
	<outline>
		<contour>
			<point x="488" y="316" type="line"/>
			<point x="78" y="316" type="line"/>
			<point x="78" y="217" type="line"/>
			<point x="488" y="217" type="line"/>
		</contour>
	</outline>
</glyph>
<glyph name="emdash" format="2">
	<advance width="666"/>
	<unicode hex="2014"/>
	<outline>
		<contour>
			<point x="588" y="316" type="line"/>
			<point x="78" y="316" type="line"/>
			<point x="78" y="217" type="line"/>
			<point x="588" y="217" type="line"/>
		</contour>
	</outline>
</glyph>
<glyph name="quoteright" format="2">
	<advance width="217"/>
	<unicode hex="2019"/>
	<outline>
		<contour>
			<point x="94" y="626" type="line"/>
			<point x="94" y="590" type="line"/>
			<point x="94" y="550"/>
			<point x="77" y="537"/>
			<point x="33" y="538" type="curve"/>
			<point x="33" y="464" type="line"/>
			<point x="146" y="489"/>
			<point x="188" y="537"/>
			<point x="184" y="626" type="curve"/>
		</contour>
		<contour>
			<point x="184" y="711" type="line"/>
			<point x="50" y="711" type="line"/>
			<point x="50" y="600" type="line"/>
			<point x="184" y="600" type="line"/>
		</contour>
	</outline>
</glyph>
<glyph name="dagger" format="2">
	<advance width="442"/>
	<unicode hex="2020"/>
	<outline>
		<contour>
			<point x="269" y="680" type="line"/>
			<point x="164" y="680" type="line"/>
			<point x="169" y="499" type="line"/>
			<point x="164" y="239" type="line"/>
			<point x="269" y="239" type="line"/>
			<point x="264" y="500" type="line"/>
		</contour>
		<contour>
			<point x="386" y="551" type="line"/>
			<point x="221" y="542" type="line"/>
			<point x="56" y="549" type="line"/>
			<point x="56" y="455" type="line"/>
			<point x="221" y="463" type="line"/>
			<point x="386" y="456" type="line"/>
		</contour>
	</outline>
</glyph>
<glyph name="Euro" format="2">
	<advance width="755"/>
	<unicode hex="20AC"/>
	<outline>
		<contour>
			<point x="198" y="297" type="curve"/>
			<point x="198" y="297" type="line"/>
			<point x="198" y="241" type="line"/>
			<point x="353" y="239"/>
			<point x="447" y="237"/>
			<point x="482" y="235" type="curve"/>
			<point x="492" y="303" type="line"/>
			<point x="454" y="301"/>
			<point x="356" y="299"/>
		</contour>
		<contour>
			<point x="695" y="159" type="curve"/>
			<point x="695" y="159" type="line"/>
			<point x="588" y="227" type="line"/>
			<point x="560" y="125"/>
			<point x="514" y="84"/>
			<point x="434" y="84" type="curve"/>
			<point x="331" y="84"/>
			<point x="265" y="171"/>
			<point x="265" y="334" type="curve"/>
			<point x="265" y="497"/>
			<point x="332" y="586"/>
			<point x="434" y="586" type="curve"/>
			<point x="506" y="586"/>
			<point x="549" y="552"/>
			<point x="580" y="469" type="curve"/>
			<point x="692" y="520" type="line"/>
			<point x="649" y="624"/>
			<point x="560" y="684"/>
			<point x="434" y="684" type="curve"/>
			<point x="260" y="684"/>
			<point x="141" y="548"/>
			<point x="141" y="334" type="curve"/>
			<point x="141" y="115"/>
			<point x="248" y="-14"/>
			<point x="434" y="-14" type="curve"/>
			<point x="561" y="-14"/>
			<point x="649" y="54"/>
		</contour>
		<contour>
			<point x="45" y="235" type="line"/>
			<point x="198" y="241" type="line"/>
			<point x="198" y="297" type="line"/>
			<point x="45" y="300" type="line"/>
		</contour>
		<contour>
			<point x="198" y="423" type="curve"/>
			<point x="198" y="423" type="line"/>
			<point x="198" y="367" type="line"/>
			<point x="353" y="365"/>
			<point x="447" y="363"/>
			<point x="482" y="361" type="curve"/>
			<point x="492" y="429" type="line"/>
			<point x="454" y="427"/>
			<point x="356" y="425"/>
		</contour>
		<contour>
			<point x="45" y="361" type="line"/>
			<point x="198" y="367" type="line"/>
			<point x="198" y="423" type="line"/>
			<point x="45" y="426" type="line"/>
		</contour>
	</outline>
</glyph>
<glyph name="period.ss01" format="2">
	<advance width="193"/>
	<outline>
		<contour>
			<point x="52" y="48" type="curve"/>
			<point x="52" y="48" type="line"/>
			<point x="52" y="84"/>
			<point x="68" y="103"/>
			<point x="96" y="103" type="curve"/>
			<point x="125" y="103"/>
			<point x="141" y="84"/>
			<point x="141" y="48" type="curve"/>
			<point x="141" y="15"/>
			<point x="125" y="-4"/>
			<point x="96" y="-4" type="curve"/>
			<point x="68" y="-4"/>
			<point x="52" y="15"/>
		</contour>
	</outline>
</glyph>
